<svg width="348" height="81" viewBox="0 0 348 81" fill="none" xmlns="http://www.w3.org/2000/svg">
<path d="M53.4145 27.7296L55.6042 25.6193C58.1049 23.2074 60.6028 20.7935 63.0981 18.3776C67.6137 14.0082 72.1292 9.63881 76.6448 5.26942C77.147 4.78499 77.1119 4.46124 76.5934 4.0217C75.2773 2.89096 73.9506 1.76612 72.7174 0.546752C71.9583 -0.204717 71.469 -0.177541 70.7508 0.603466C68.0216 3.56917 65.2422 6.48761 62.4675 9.41077C57.9807 14.137 53.4893 18.86 48.9932 23.58C50.6016 24.8087 52.0829 26.199 53.4145 27.7296Z" fill="white"/>
<path d="M39.1708 33.9479C38.6687 34.4832 38.344 34.6403 37.6375 34.1098C36.082 32.9424 34.2508 32.5419 32.3146 32.7451C30.0583 32.9814 28.08 33.9267 26.2594 35.2453C25.0624 36.1102 23.9845 37.118 22.923 38.1519C20.9026 40.1192 18.4455 41.0727 15.6486 41.159C15.3309 41.1684 14.8953 41.0408 14.7353 41.3705C14.5286 41.8017 15.011 42.0026 15.2445 42.246C16.1881 43.2361 17.1831 44.1778 18.1139 45.1798C18.6254 45.7316 19.1474 45.8698 19.8819 45.7103C21.4106 45.3783 22.8354 44.7651 24.5112 43.9533C23.5244 45.4409 22.6824 46.5965 21.3581 47.2782C21.0357 47.4436 20.5663 47.576 21.0077 48.0533C21.6862 48.7859 22.3963 49.4877 23.1098 50.1896C23.4426 50.518 23.7871 50.329 24.1235 50.1588C24.8674 49.7808 25.4618 49.1982 26.18 48.448C26.1438 49.5964 25.7 50.3243 25.199 50.9977C24.7985 51.5354 24.7494 51.917 25.2679 52.4227C25.7619 52.9048 26.1286 52.9591 26.6693 52.5066C27.4062 51.8599 28.3438 51.4949 29.3191 51.4751L28.7901 51.9643C26.9496 53.6598 26.9367 54.0911 28.6733 55.8421C28.8298 55.9993 28.9956 56.1481 29.1404 56.3147C29.5667 56.7874 29.8306 56.7047 30.0852 56.1221C30.6936 54.7279 31.935 53.9682 33.1671 53.1683C32.501 54.5806 31.9896 56.0624 31.6419 57.5873C31.4737 58.3234 31.5952 58.8598 32.1476 59.3797C33.062 60.241 33.918 61.165 34.8078 62.0524C35.0099 62.2544 35.2026 62.6266 35.4969 62.525C35.8881 62.3915 35.7082 61.9519 35.7304 61.6436C35.8928 58.5042 36.9847 55.7842 39.2573 53.5936C40.4893 52.4165 41.5441 51.063 42.3882 49.5763C44.3735 46.0494 45.0578 42.4977 42.4909 38.9235C42.1102 38.3929 42.5832 38.185 42.8413 37.9321C46.3634 34.5269 49.8899 31.1256 53.4206 27.7282C52.0882 26.1975 50.6061 24.8072 48.9969 23.5786L47.794 24.8429C44.9118 27.8724 42.0375 30.9074 39.1708 33.9479Z" fill="white"/>
<path d="M3.24512 58.2041C4.53056 61.8706 6.54345 65.2325 9.16012 68.0831C11.6046 70.7901 14.5476 72.9887 17.8242 74.5556C11.1032 71.1564 5.89699 65.3172 3.24512 58.2041Z" fill="white"/>
<path d="M44.494 72.0913C32.2856 75.7352 21.2543 74.1106 12.6124 64.3214C3.97061 54.5322 3.62026 43.2448 8.67809 31.2202C2.39522 37.5037 -0.221862 48.2475 3.23956 58.2045C5.89143 65.3176 11.0976 71.1568 17.8186 74.556C27.4403 79.1298 38.3594 77.348 44.494 72.0913Z" fill="white"/>
<path d="M41.512 76.3141C38.6065 77.6138 35.5118 78.2649 32.3633 78.7883C34.1711 79.3495 36.0046 79.0388 37.7878 78.7942C46.5208 77.5926 53.6048 73.3815 58.8939 66.2875C64.6898 58.5164 66.612 49.7185 64.9385 40.1503C64.0043 34.7825 61.7737 29.9689 58.4863 25.6456C57.9339 24.9177 57.545 24.8693 56.953 25.5475C56.3804 26.2266 55.7556 26.8587 55.0844 27.438C54.2892 28.0996 54.3172 28.6302 54.9256 29.4584C59.1683 35.2421 61.2003 41.6828 60.8196 48.6859C60.7078 52.0174 60.0475 55.3067 58.8658 58.4183C55.9451 66.5829 50.0395 72.4906 41.512 76.3141Z" fill="white"/>
<path d="M58.8638 58.4166C60.0454 55.3049 60.7058 52.0156 60.8175 48.6841C60.7743 49.4817 60.7008 50.2863 60.5957 51.098C60.2798 53.5934 59.6991 56.0471 58.8638 58.4166Z" fill="white"/>
<path d="M11.0204 24.9919C18.0203 18.875 26.1706 16.4292 35.3695 17.6805C39.743 18.2712 43.7474 19.8675 47.4389 22.2814C47.9738 22.6359 48.3568 22.7812 48.8485 22.2212C49.4814 21.4992 50.188 20.8435 50.8618 20.1582C51.8731 19.1302 51.886 19.109 50.6983 18.3209C43.9249 13.831 36.4859 11.7951 28.4688 12.8857C16.0094 14.5742 7.11524 21.3185 2.10529 33.0607C0.324332 37.2159 -0.344271 41.7722 0.166694 46.2717C0.258605 45.961 0.333851 45.6454 0.39209 45.3265C1.46298 37.2234 4.89521 30.3491 11.0204 24.9919Z" fill="white"/>
<path d="M16.0036 34.9266C16.222 33.9317 16.7954 33.4201 17.7483 33.1661C18.5004 32.9664 19.3144 32.873 20.1786 32.2586C19.2268 31.9561 18.4817 31.6678 17.7098 31.4894C16.7253 31.2673 16.2185 30.6848 15.9943 29.7112C15.8098 28.9089 15.6439 28.0842 15.1137 27.1118C14.8335 28.057 14.566 28.747 14.4317 29.4607C14.2052 30.6635 13.5804 31.3571 12.3565 31.5615C11.685 31.6738 11.0439 31.968 10.3887 32.1806C10.3887 32.2846 10.3887 32.3886 10.3794 32.4914C10.9633 32.6722 11.539 32.9132 12.1381 33.0219C13.494 33.2665 14.2671 34.018 14.4855 35.4122C14.5859 36.0526 14.8358 36.6682 15.018 37.2944C15.4858 36.5722 15.8198 35.7698 16.0036 34.9266Z" fill="white"/>
<path d="M49.9977 56.9307C49.7723 56.0056 49.4395 55.1088 49.1522 54.2002C48.7133 54.9078 48.4021 55.6888 48.2331 56.5065C48.0112 57.577 47.4728 58.1997 46.3646 58.384C45.4846 58.5104 44.6373 58.809 43.8701 59.2631C44.8581 59.5514 45.574 59.809 46.312 59.9626C47.3561 60.1788 47.9785 60.7176 48.2202 61.8153C48.3884 62.5833 48.5286 63.3997 49.0961 64.2965C49.3986 63.3288 49.7186 62.5785 49.8587 61.7964C50.049 60.7223 50.6376 60.2426 51.6571 60.011C52.4279 59.8362 53.2547 59.6849 54.0979 59.0752C53.0468 58.7539 52.1862 58.449 51.3033 58.2352C50.5769 58.0615 50.1787 57.6751 49.9977 56.9307Z" fill="white"/>
<path d="M37.6921 30.2899C38.0237 27.987 39.0876 26.607 41.498 26.3187C39.1285 26.0114 38.0144 24.6468 37.6722 22.3545C37.4223 24.7708 36.1447 25.9524 33.8184 26.3068C36.1599 26.6637 37.4083 27.9114 37.6921 30.2899Z" fill="white"/>
<path d="M54.7019 39.5332C54.3737 41.4119 53.4546 42.532 51.5371 42.8416C53.5562 43.0779 54.369 44.3008 54.7836 46.1582C54.8875 44.0314 56.1009 43.1583 57.9706 42.7943C56.025 42.5533 55.0172 41.4816 54.7019 39.5332Z" fill="white"/>
<path d="M23.9926 27.2085C24.2974 25.337 25.4418 24.504 27.1585 24.1223C25.3344 23.8021 24.3207 22.8096 24.1222 20.873C23.4309 21.7072 23.6095 22.6277 23.0548 23.1924C22.5001 23.7572 21.5226 23.5339 20.7881 24.3433C22.6391 24.4721 23.6317 25.3901 23.9926 27.2085Z" fill="white"/>
<path d="M79.2852 33.8086H86.1055L93.3125 51.4043H93.6113L100.836 33.8086H107.709V60H102.277V42.9492H102.084L95.2812 59.877H91.6074L84.875 42.9141H84.6465V60H79.2852V33.8086ZM112.156 60V40.3477H117.43V43.793H117.641C117.992 42.5742 118.59 41.6543 119.434 41.0332C120.277 40.4004 121.25 40.084 122.352 40.084C122.621 40.084 122.914 40.1016 123.23 40.1367C123.547 40.1719 123.822 40.2188 124.057 40.2773V45.0938C123.799 45.0117 123.441 44.9473 122.984 44.9004C122.539 44.8418 122.129 44.8125 121.754 44.8125C120.559 44.8125 119.568 45.1934 118.783 45.9551C117.998 46.7051 117.605 47.6836 117.605 48.8906V60H112.156ZM143.199 45.9551L138.242 46.2539C138.102 45.6328 137.75 45.0996 137.188 44.6543C136.637 44.1973 135.887 43.9688 134.938 43.9688C134.094 43.9688 133.385 44.1445 132.811 44.4961C132.236 44.8477 131.949 45.3164 131.949 45.9023C131.949 46.3711 132.137 46.7695 132.512 47.0977C132.887 47.4258 133.525 47.6895 134.428 47.8887L137.996 48.5918C141.77 49.3418 143.656 51.1113 143.656 53.9004C143.656 55.2012 143.281 56.3379 142.531 57.3105C141.781 58.2832 140.75 59.0391 139.438 59.5781C138.125 60.1172 136.619 60.3867 134.92 60.3867C132.318 60.3867 130.25 59.8477 128.715 58.7695C127.18 57.6797 126.277 56.1973 126.008 54.3223L131.352 54.041C131.715 55.6582 132.91 56.4668 134.938 56.4668C135.887 56.4668 136.654 56.2793 137.24 55.9043C137.826 55.5293 138.119 55.0547 138.119 54.4805C138.119 53.5078 137.281 52.8516 135.605 52.5117L132.213 51.8086C128.428 51.0469 126.535 49.1836 126.535 46.2188C126.535 44.3203 127.291 42.8262 128.803 41.7363C130.326 40.6465 132.342 40.1016 134.85 40.1016C137.334 40.1016 139.291 40.6289 140.721 41.6836C142.15 42.7266 142.977 44.1504 143.199 45.9551ZM151.004 60.334C150.137 60.334 149.404 60.041 148.807 59.4551C148.209 58.8574 147.91 58.1309 147.91 57.2754C147.91 56.4082 148.209 55.6816 148.807 55.0957C149.404 54.5098 150.137 54.2168 151.004 54.2168C151.871 54.2168 152.604 54.5098 153.201 55.0957C153.799 55.6816 154.098 56.4082 154.098 57.2754C154.098 58.1309 153.799 58.8574 153.201 59.4551C152.604 60.041 151.871 60.334 151.004 60.334ZM167.738 60V33.8086H178.215C181.098 33.8086 183.266 34.4414 184.719 35.707C186.172 36.9609 186.898 38.5664 186.898 40.5234C186.898 42.0586 186.447 43.3066 185.545 44.2676C184.654 45.2168 183.529 45.8438 182.17 46.1484V46.4121C183.166 46.459 184.098 46.7402 184.965 47.2559C185.844 47.7715 186.553 48.498 187.092 49.4355C187.643 50.3613 187.918 51.4688 187.918 52.7578C187.918 54.1406 187.578 55.3828 186.898 56.4844C186.219 57.5742 185.211 58.4355 183.875 59.0684C182.539 59.6895 180.887 60 178.918 60H167.738ZM177.371 44.7773C178.496 44.7773 179.434 44.4785 180.184 43.8809C180.934 43.2832 181.309 42.4688 181.309 41.4375C181.309 40.5 180.975 39.7441 180.307 39.1699C179.639 38.584 178.695 38.291 177.477 38.291H173.258V44.7773H177.371ZM177.775 55.4824C179.322 55.4824 180.447 55.1836 181.15 54.5859C181.865 53.9883 182.223 53.1973 182.223 52.2129C182.223 51.1348 181.836 50.25 181.062 49.5586C180.289 48.8555 179.24 48.5039 177.916 48.5039H173.258V55.4824H177.775ZM191.434 60V40.3477H196.707V43.793H196.918C197.27 42.5742 197.867 41.6543 198.711 41.0332C199.555 40.4004 200.527 40.084 201.629 40.084C201.898 40.084 202.191 40.1016 202.508 40.1367C202.824 40.1719 203.1 40.2188 203.334 40.2773V45.0938C203.076 45.0117 202.719 44.9473 202.262 44.9004C201.816 44.8418 201.406 44.8125 201.031 44.8125C199.836 44.8125 198.846 45.1934 198.061 45.9551C197.275 46.7051 196.883 47.6836 196.883 48.8906V60H191.434ZM206.164 60V40.3477H211.613V60H206.164ZM208.889 37.834C208.08 37.834 207.383 37.5645 206.797 37.0254C206.223 36.4863 205.936 35.8359 205.936 35.0742C205.936 34.3125 206.223 33.668 206.797 33.1406C207.383 32.6016 208.08 32.332 208.889 32.332C209.697 32.332 210.389 32.6016 210.963 33.1406C211.549 33.668 211.842 34.3125 211.842 35.0742C211.842 35.8359 211.549 36.4863 210.963 37.0254C210.389 37.5645 209.697 37.834 208.889 37.834ZM224.779 67.7695C222.131 67.7695 220.051 67.2422 218.539 66.1875C217.039 65.1445 216.131 63.8438 215.814 62.2852L220.842 61.6172C221.064 62.2148 221.492 62.7363 222.125 63.1816C222.77 63.627 223.695 63.8496 224.902 63.8496C226.086 63.8496 227.064 63.5625 227.838 62.9883C228.611 62.4258 228.998 61.4707 228.998 60.123V56.5195H228.752C228.4 57.3398 227.768 58.0781 226.854 58.7344C225.951 59.3906 224.715 59.7188 223.145 59.7188C221.68 59.7188 220.344 59.3789 219.137 58.6992C217.93 58.0078 216.969 56.9531 216.254 55.5352C215.539 54.1172 215.182 52.3242 215.182 50.1562C215.182 47.918 215.545 46.0547 216.271 44.5664C217.01 43.0781 217.982 41.9648 219.189 41.2266C220.396 40.4766 221.721 40.1016 223.162 40.1016C224.252 40.1016 225.172 40.2891 225.922 40.6641C226.672 41.0273 227.275 41.4844 227.732 42.0352C228.201 42.5859 228.559 43.1309 228.805 43.6699H229.016V40.3477H234.359V60.2109C234.359 61.875 233.949 63.2695 233.129 64.3945C232.309 65.5195 231.178 66.3633 229.736 66.9258C228.307 67.4883 226.654 67.7695 224.779 67.7695ZM220.754 50.1211C220.754 51.8086 221.105 53.1504 221.809 54.1465C222.523 55.1309 223.549 55.623 224.885 55.623C226.197 55.623 227.211 55.1367 227.926 54.1641C228.652 53.1914 229.016 51.8438 229.016 50.1211C229.016 48.3984 228.658 47.0215 227.943 45.9902C227.229 44.9473 226.209 44.4258 224.885 44.4258C223.537 44.4258 222.512 44.959 221.809 46.0254C221.105 47.0801 220.754 48.4453 220.754 50.1211ZM244.168 48.6445V60H238.719V33.8086H243.992V43.8457H244.238C244.684 42.6855 245.398 41.7715 246.383 41.1035C247.379 40.4355 248.621 40.1016 250.109 40.1016C252.148 40.1016 253.789 40.7578 255.031 42.0703C256.273 43.3828 256.895 45.1934 256.895 47.502V60H251.463V48.4688C251.463 47.25 251.158 46.3066 250.549 45.6387C249.939 44.959 249.066 44.6191 247.93 44.6191C246.828 44.6191 245.926 44.9766 245.223 45.6914C244.52 46.3945 244.168 47.3789 244.168 48.6445ZM271.695 40.3477V44.4609H267.969V53.9531C267.969 55.2305 268.59 55.8691 269.832 55.8691C270.043 55.8691 270.271 55.8516 270.518 55.8164C270.775 55.7812 270.998 55.7402 271.186 55.6934L272.047 59.7715C270.887 60.1113 269.762 60.2812 268.672 60.2812C266.727 60.2812 265.215 59.7891 264.137 58.8047C263.07 57.8203 262.537 56.4434 262.537 54.6738V44.4609H259.865V40.3477H262.537V35.6719H267.969V40.3477H271.695ZM291.559 45.9551L286.602 46.2539C286.461 45.6328 286.109 45.0996 285.547 44.6543C284.996 44.1973 284.246 43.9688 283.297 43.9688C282.453 43.9688 281.744 44.1445 281.17 44.4961C280.596 44.8477 280.309 45.3164 280.309 45.9023C280.309 46.3711 280.496 46.7695 280.871 47.0977C281.246 47.4258 281.885 47.6895 282.787 47.8887L286.355 48.5918C290.129 49.3418 292.016 51.1113 292.016 53.9004C292.016 55.2012 291.641 56.3379 290.891 57.3105C290.141 58.2832 289.109 59.0391 287.797 59.5781C286.484 60.1172 284.979 60.3867 283.279 60.3867C280.678 60.3867 278.609 59.8477 277.074 58.7695C275.539 57.6797 274.637 56.1973 274.367 54.3223L279.711 54.041C280.074 55.6582 281.27 56.4668 283.297 56.4668C284.246 56.4668 285.014 56.2793 285.6 55.9043C286.186 55.5293 286.479 55.0547 286.479 54.4805C286.479 53.5078 285.641 52.8516 283.965 52.5117L280.572 51.8086C276.787 51.0469 274.895 49.1836 274.895 46.2188C274.895 44.3203 275.65 42.8262 277.162 41.7363C278.686 40.6465 280.701 40.1016 283.209 40.1016C285.693 40.1016 287.65 40.6289 289.08 41.6836C290.51 42.7266 291.336 44.1504 291.559 45.9551ZM295.461 60V40.3477H300.91V60H295.461ZM298.186 37.834C297.377 37.834 296.68 37.5645 296.094 37.0254C295.52 36.4863 295.232 35.8359 295.232 35.0742C295.232 34.3125 295.52 33.668 296.094 33.1406C296.68 32.6016 297.377 32.332 298.186 32.332C298.994 32.332 299.686 32.6016 300.26 33.1406C300.846 33.668 301.139 34.3125 301.139 35.0742C301.139 35.8359 300.846 36.4863 300.26 37.0254C299.686 37.5645 298.994 37.834 298.186 37.834ZM312.459 60.3164C310.959 60.3164 309.605 59.9297 308.398 59.1562C307.191 58.3828 306.236 57.2461 305.533 55.7461C304.83 54.2344 304.479 52.3887 304.479 50.209C304.479 47.959 304.842 46.084 305.568 44.584C306.295 43.084 307.262 41.9648 308.469 41.2266C309.676 40.4766 310.994 40.1016 312.424 40.1016C313.525 40.1016 314.445 40.2891 315.184 40.6641C315.922 41.0273 316.52 41.4844 316.977 42.0352C317.434 42.5859 317.779 43.1309 318.014 43.6699H318.172V33.8086H323.621V60H318.26V56.8535H318.014C317.768 57.3926 317.41 57.9316 316.941 58.4707C316.473 58.998 315.869 59.4375 315.131 59.7891C314.404 60.1406 313.514 60.3164 312.459 60.3164ZM318.295 50.1914C318.295 48.4336 317.938 47.0332 317.223 45.9902C316.508 44.9473 315.488 44.4258 314.164 44.4258C312.816 44.4258 311.791 44.959 311.088 46.0254C310.396 47.0918 310.051 48.4805 310.051 50.1914C310.051 51.8906 310.402 53.2852 311.105 54.375C311.809 55.4531 312.828 55.9922 314.164 55.9922C315.477 55.9922 316.49 55.459 317.205 54.3926C317.932 53.3262 318.295 51.9258 318.295 50.1914ZM336.928 60.3867C334.912 60.3867 333.178 59.9766 331.725 59.1562C330.271 58.3359 329.152 57.1699 328.367 55.6582C327.582 54.1348 327.189 52.3359 327.189 50.2617C327.189 48.2461 327.576 46.4766 328.35 44.9531C329.135 43.4297 330.236 42.2402 331.654 41.3848C333.072 40.5293 334.742 40.1016 336.664 40.1016C338.398 40.1016 339.963 40.4707 341.357 41.209C342.764 41.9473 343.877 43.0547 344.697 44.5312C345.529 46.0078 345.945 47.8594 345.945 50.0859V51.5625H332.551C332.609 53.0508 333.043 54.2168 333.852 55.0605C334.66 55.9043 335.715 56.3262 337.016 56.3262C337.918 56.3262 338.691 56.1328 339.336 55.7461C339.992 55.3594 340.461 54.7969 340.742 54.0586L345.77 54.3926C345.383 56.1973 344.416 57.6504 342.869 58.752C341.334 59.8418 339.354 60.3867 336.928 60.3867ZM332.586 48.2051H340.725C340.596 46.9629 340.197 45.9785 339.529 45.252C338.861 44.5254 337.924 44.1621 336.717 44.1621C335.498 44.1621 334.531 44.543 333.816 45.3047C333.113 46.0547 332.703 47.0215 332.586 48.2051Z" fill="white"/>
</svg>
